<svg xmlns="http://www.w3.org/2000/svg" viewBox="0 0 500 500"><g id="freepik--background-simple--inject-14"><path d="M371.16,160.39c-21.17-16.07-42.19,8.86-64.42,11-26.64,2.52-35.31-7.52-52.71-23.08-25.65-23-52.45-53.2-92.66-49C53.38,110.75,60.45,231.69,121,283.12c39.29,33.35,81,11.2,129.36,11.93,43.61.67,112.93,37.42,155.23,11.74,37.68-22.88,25.11-74.35-12.73-85.78-12.24-3.7-19.67-13.91-18.46-26.33C375.57,183,382.5,169,371.16,160.39Z" style="fill:#0A0A0A"></path><path d="M371.16,160.39c-21.17-16.07-42.19,8.86-64.42,11-26.64,2.52-35.31-7.52-52.71-23.08-25.65-23-52.45-53.2-92.66-49C53.38,110.75,60.45,231.69,121,283.12c39.29,33.35,81,11.2,129.36,11.93,43.61.67,112.93,37.42,155.23,11.74,37.68-22.88,25.11-74.35-12.73-85.78-12.24-3.7-19.67-13.91-18.46-26.33C375.57,183,382.5,169,371.16,160.39Z" style="fill:#fff;opacity:0.9"></path></g><g id="freepik--Shadow--inject-14"><ellipse id="freepik--path--inject-14" cx="250" cy="416.24" rx="193.89" ry="11.32" style="fill:#f5f5f5"></ellipse></g><g id="freepik--Screen--inject-14"><rect x="348.16" y="174.61" width="23.81" height="1.07" transform="translate(167.13 526) rotate(-87.13)" style="fill:#0A0A0A"></rect><rect x="354.71" y="195.71" width="8.58" height="1.07" transform="translate(145.04 544.99) rotate(-87.13)" style="fill:#0A0A0A"></rect><path d="M334.22,355.35H232a12.77,12.77,0,0,1-12.84-13.53l11.4-226a14.42,14.42,0,0,1,14.21-13.53H347a12.76,12.76,0,0,1,12.84,13.53l-11.4,226A14.43,14.43,0,0,1,334.22,355.35Z" style="fill:#0A0A0A"></path><path d="M306.71,333.86H275.88a16.24,16.24,0,0,1-16.32-17.18L265,208.18a18.22,18.22,0,0,1,18-17.12h30.83a16.24,16.24,0,0,1,16.32,17.18l-5.48,108.5A18.22,18.22,0,0,1,306.71,333.86ZM283,192.19a17.09,17.09,0,0,0-16.86,16.05l-5.47,108.5a15.09,15.09,0,0,0,15.19,16h30.83a17.09,17.09,0,0,0,16.86-16.05L329,208.18a15.11,15.11,0,0,0-15.19-16Z" style="fill:#fff;opacity:0.2"></path><path d="M280.83,221h-26a12.77,12.77,0,0,1-12.85-13.53l1.31-26.05a14.44,14.44,0,0,1,14.22-13.53h26.05a12.77,12.77,0,0,1,12.85,13.53l-1.31,26.05A14.43,14.43,0,0,1,280.83,221Z" style="opacity:0.1"></path><path d="M273.25,213H247.19a12.78,12.78,0,0,1-12.85-13.53l1.32-26a14.43,14.43,0,0,1,14.21-13.53h26.06a12.77,12.77,0,0,1,12.84,13.53l-1.31,26A14.43,14.43,0,0,1,273.25,213Z" style="fill:#fff"></path><path d="M317.43,321.84H298.87a9.11,9.11,0,0,1-9.16-9.64l.94-18.56A10.28,10.28,0,0,1,300.78,284h18.56a9.11,9.11,0,0,1,9.16,9.64l-.94,18.56A10.28,10.28,0,0,1,317.43,321.84Z" style="opacity:0.1"></path><path d="M312,316.15H293.46a9.1,9.1,0,0,1-9.15-9.64l.93-18.57a10.29,10.29,0,0,1,10.13-9.64h18.57a9.1,9.1,0,0,1,9.15,9.64l-.94,18.57A10.27,10.27,0,0,1,312,316.15Z" style="fill:#fff"></path><path d="M250.15,259.92h-13.4a6.57,6.57,0,0,1-6.61-7l.68-13.39a7.42,7.42,0,0,1,7.31-7h13.39a6.57,6.57,0,0,1,6.61,7L257.45,253A7.42,7.42,0,0,1,250.15,259.92Z" style="fill:#fff"></path><path d="M336.08,259.92H322.69a6.57,6.57,0,0,1-6.61-7l.68-13.39a7.42,7.42,0,0,1,7.3-7h13.4a6.57,6.57,0,0,1,6.61,7L343.39,253A7.42,7.42,0,0,1,336.08,259.92Z" style="fill:#fff"></path><path d="M293.12,259.92h-13.4a6.57,6.57,0,0,1-6.61-7l.68-13.39a7.42,7.42,0,0,1,7.31-7h13.39a6.57,6.57,0,0,1,6.61,7L300.42,253A7.42,7.42,0,0,1,293.12,259.92Z" style="fill:#fff"></path><path d="M343,141.69H244.81a7.13,7.13,0,0,1-7.17-7.56V134a8.06,8.06,0,0,1,7.93-7.55h98.15A7.13,7.13,0,0,1,350.9,134v.18A8.06,8.06,0,0,1,343,141.69Z" style="fill:#fff"></path><polygon points="338.55 129.75 339.8 132.58 342.9 133.03 340.53 135.23 340.91 138.33 338.19 136.87 335.33 138.33 336.02 135.23 333.88 133.03 337.02 132.58 338.55 129.75" style="fill:#0A0A0A"></polygon><path d="M250.49,134a3,3,0,0,1-3,2.82,2.65,2.65,0,0,1-2.67-2.82,3,3,0,0,1,3-2.82A2.66,2.66,0,0,1,250.49,134Z" style="fill:#0A0A0A;opacity:0.1"></path><path d="M257.72,134a3,3,0,0,1-3,2.82,2.66,2.66,0,0,1-2.68-2.82,3,3,0,0,1,3-2.82A2.66,2.66,0,0,1,257.72,134Z" style="fill:#0A0A0A;opacity:0.1"></path><path d="M265,134a3,3,0,0,1-3,2.82,2.65,2.65,0,0,1-2.68-2.82,3,3,0,0,1,3-2.82A2.66,2.66,0,0,1,265,134Z" style="fill:#0A0A0A;opacity:0.1"></path><polygon points="286.24 114.45 291.9 118.89 292.35 110.02 286.24 114.45" style="fill:#fff;opacity:0.2"></polygon><polygon points="304.28 114.45 298.17 118.89 298.61 110.02 304.28 114.45" style="fill:#fff;opacity:0.2"></polygon><path d="M339.35,175.62h-35.7a2.77,2.77,0,0,1-2.78-2.92,3.08,3.08,0,0,1,3-2.9h35.71a2.77,2.77,0,0,1,2.78,2.93A3.09,3.09,0,0,1,339.35,175.62Zm-35.44-5.26a2.52,2.52,0,0,0-2.48,2.37,2.19,2.19,0,0,0,2.22,2.33h35.7a2.52,2.52,0,0,0,2.49-2.36,2.21,2.21,0,0,0-.61-1.65,2.17,2.17,0,0,0-1.61-.69Z" style="fill:#fff;opacity:0.2"></path><path d="M339,183.61h-35.7a2.75,2.75,0,0,1-2.78-2.92,3.08,3.08,0,0,1,3-2.9h35.71a2.76,2.76,0,0,1,2.77,2.93A3.08,3.08,0,0,1,339,183.61Zm-35.44-5.26a2.52,2.52,0,0,0-2.48,2.37,2.23,2.23,0,0,0,.6,1.65,2.2,2.2,0,0,0,1.62.68H339a2.51,2.51,0,0,0,2.48-2.36,2.21,2.21,0,0,0-2.21-2.34Z" style="fill:#fff;opacity:0.2"></path><path d="M242,319.55a2.72,2.72,0,0,1-2-.86,2.75,2.75,0,0,1-.76-2.07l1.8-35.7a3.09,3.09,0,0,1,3-2.9A2.76,2.76,0,0,1,246.8,281l-1.8,35.7A3.08,3.08,0,0,1,242,319.55Zm2.06-41a2.52,2.52,0,0,0-2.48,2.37l-1.8,35.7h0A2.21,2.21,0,0,0,242,319a2.52,2.52,0,0,0,2.48-2.37l1.8-35.7a2.21,2.21,0,0,0-2.22-2.34Zm-4.56,38.06h0Z" style="fill:#fff;opacity:0.2"></path><circle cx="261.56" cy="186.49" r="6.08" transform="translate(-26.4 44.12) rotate(-9.18)" style="fill:#0A0A0A"></circle><path d="M253.76,186.59v-.1a7.81,7.81,0,0,1,7.8-7.81l.27,0h15.05a17.18,17.18,0,0,0-29.19-2.37Z" style="fill:#0A0A0A"></path><path d="M265.34,179.66a7.81,7.81,0,0,1,2.28,11.74l-6.76,12.26.7,0a17.2,17.2,0,0,0,15.78-24Z" style="fill:#0A0A0A"></path><path d="M265.52,193.2a7.71,7.71,0,0,1-4,1.09,7.79,7.79,0,0,1-7.11-4.6l-7.37-12.47a17.2,17.2,0,0,0,12.71,26.37Z" style="fill:#0A0A0A"></path><path d="M315,299.24H299.16c-.1,0-.12,0-.11.13a5.29,5.29,0,0,0,.53,1.91,4.6,4.6,0,0,0,3.4,2.56,5.59,5.59,0,0,0,1.73.11,5.12,5.12,0,0,0,2.83-1.21,6,6,0,0,0,1-1.11.2.2,0,0,1,.16-.09h5.67c0,.1-.07.19-.1.29a11.53,11.53,0,0,1-4.75,5.59,10.09,10.09,0,0,1-3.65,1.29,11.81,11.81,0,0,1-2.3.16,10.72,10.72,0,0,1-4.27-1,.31.31,0,0,0-.31,0,17.32,17.32,0,0,1-3.64,1.29,7.19,7.19,0,0,1-2.17.17,2.78,2.78,0,0,1-2.73-2.43,7,7,0,0,1,0-2.33,19.46,19.46,0,0,1,3.12-7.89,32,32,0,0,1,4.78-5.67,3.61,3.61,0,0,1,.3-.25l0,0-.16.05a4.5,4.5,0,0,0-1.18.64,25,25,0,0,0-3.62,3.2c-.17.17-.33.35-.5.53h0c0-.16.06-.33.11-.48a9.57,9.57,0,0,1,1.94-3.64,13.25,13.25,0,0,1,3.87-3.23,8.86,8.86,0,0,1,3.13-1,10.52,10.52,0,0,1,2.17-.09.64.64,0,0,0,.28-.07,22.06,22.06,0,0,1,3.7-1.33,9.67,9.67,0,0,1,2.39-.31,4.18,4.18,0,0,1,2.64.82,3.34,3.34,0,0,1,1.35,2.36,6,6,0,0,1-.41,2.74c-.18.45-.4.88-.61,1.32a.25.25,0,0,0,0,.25,12.3,12.3,0,0,1,1.13,3.54,16.56,16.56,0,0,1,.19,3.06S315,299.19,315,299.24Zm-5.92-3a1.34,1.34,0,0,0,0-.21,12.22,12.22,0,0,0-.37-1.35,4.43,4.43,0,0,0-2.74-2.75,5.85,5.85,0,0,0-3.16-.18,4.28,4.28,0,0,0-2.52,1.48,5.67,5.67,0,0,0-1.15,2.5c0,.16,0,.33-.08.51Zm-15.63,5.28-.08.14a17.93,17.93,0,0,0-.9,2.34,6.45,6.45,0,0,0-.35,2.65,1.91,1.91,0,0,0,1.14,1.62,3.79,3.79,0,0,0,2.18.2,8.17,8.17,0,0,0,2.67-1l.15-.1a11.14,11.14,0,0,1-2.85-2.53A13.52,13.52,0,0,1,293.47,301.53Zm19.9-9.61.07-.12a7.51,7.51,0,0,0,.7-2.26,2.79,2.79,0,0,0-.21-1.61,2.2,2.2,0,0,0-1.53-1.33,4.09,4.09,0,0,0-1.48,0,11,11,0,0,0-2.69.83l-.14.07A11.32,11.32,0,0,1,313.37,291.92Z" style="fill:#0A0A0A"></path></g><g id="freepik--Character--inject-14"><path d="M148.38,207.94l4.77,4.16-8.81,4a45.68,45.68,0,0,1-.67-5.3,2.45,2.45,0,0,1,2.24-2.64Z" style="fill:#ffc3bd"></path><polygon points="154.92 220.56 147.11 220.56 144.34 216.09 153.15 212.1 154.92 220.56" style="fill:#ffc3bd"></polygon><path d="M199.56,145.9c3.33,4.22,6.79,8.55,10.24,12.75s7,8.35,10.6,12.23l1.37,1.43.52.53a3.89,3.89,0,0,0,.46.41,18.05,18.05,0,0,0,2.68,1.75,54.39,54.39,0,0,0,7,3c5,1.82,10.25,3.41,15.46,4.87l-.77,5.88a92.19,92.19,0,0,1-17.22-1.91,52.35,52.35,0,0,1-8.74-2.6,25.82,25.82,0,0,1-4.57-2.35c-.4-.28-.78-.53-1.19-.87l-.6-.49-.43-.38-1.64-1.47a163.64,163.64,0,0,1-12-12.37c-3.76-4.28-7.29-8.62-10.72-13.24Z" style="fill:#ffc3bd"></path><polygon points="257.21 181.93 259.35 190.19 250.97 189.72 252.87 180.5 257.21 181.93" style="fill:#ffc3bd"></polygon><path d="M245.55,182.91l7.32-2.41-1.9,9.22s-6.47,1.89-8.79-2.84Z" style="fill:#ffc3bd"></path><path d="M157.75,149.43c-1.52,5.21-3.11,10.45-4.73,15.64l-2.4,7.78-1.16,3.85-.55,1.9-.46,1.72a15.93,15.93,0,0,0-.32,3c0,1.19,0,2.45,0,3.73.13,2.57.33,5.22.61,7.88.54,5.33,1.2,10.77,1.86,16.14l-5.75,1.46a142.13,142.13,0,0,1-5-16.07c-.66-2.74-1.27-5.52-1.7-8.41-.21-1.45-.4-2.93-.51-4.48a23.84,23.84,0,0,1,.14-5.2c.08-.57.14-.82.21-1.21l.19-1.08.43-2.1c.29-1.39.6-2.76.93-4.12q.94-4.08,2-8.08c1.42-5.36,3-10.64,4.68-15.91Z" style="fill:#ffc3bd"></path><path d="M186.91,114.41c-.13.62.09,1.21.49,1.31s.84-.32,1-.94-.09-1.21-.49-1.31S187,113.79,186.91,114.41Z" style="fill:#263238"></path><path d="M186.94,115.61a23.77,23.77,0,0,0,1.82,6.07,3.64,3.64,0,0,1-3.07-.18Z" style="fill:#ed847e"></path><path d="M188.56,110.63a.38.38,0,0,0,.31-.16.37.37,0,0,0-.09-.52,3.66,3.66,0,0,0-3.39-.26.37.37,0,0,0,.29.69,2.93,2.93,0,0,1,2.67.18A.4.4,0,0,0,188.56,110.63Z" style="fill:#263238"></path><path d="M165.48,116.39c-.7,7.26.33,14.29-1.3,20.6,0,0,1.81,5.86,12.54,5.86,11.8,0,5.41-5.86,5.41-5.86-6.5-1.54-6.52-6.31-5.57-10.8Z" style="fill:#ffc3bd"></path><path d="M161.9,139c-.92-1.85-1.53-4.48.37-5.14,2.09-.73,13.26-1,17.31.4a4.27,4.27,0,0,1,3.06,5.13Z" style="fill:#0A0A0A"></path><path d="M140.46,402.69a9.87,9.87,0,0,1-2.13-.82.2.2,0,0,1-.11-.19.19.19,0,0,1,.14-.18c.35-.12,3.45-1.15,4.27-.45a.66.66,0,0,1,.2.64,1.21,1.21,0,0,1-.66,1A2.59,2.59,0,0,1,140.46,402.69Zm-1.49-1c1.36.62,2.47.83,3,.55a.81.81,0,0,0,.44-.66.24.24,0,0,0-.07-.26C141.94,401,140.22,401.35,139,401.73Z" style="fill:#0A0A0A"></path><path d="M138.38,401.89a.17.17,0,0,1-.1-.06.19.19,0,0,1-.05-.2c0-.1.8-2.48,2-3a1.12,1.12,0,0,1,.91-.06h0a.65.65,0,0,1,.5.67c0,1-2.15,2.42-3.13,2.69Zm2.5-3a.73.73,0,0,0-.5.06,5,5,0,0,0-1.62,2.4c1-.45,2.42-1.59,2.45-2.17,0-.05,0-.17-.25-.27h0Z" style="fill:#0A0A0A"></path><path d="M195.08,408.8a10.45,10.45,0,0,1-2.26-.31.2.2,0,0,1-.15-.17.22.22,0,0,1,.09-.21c.32-.19,3.1-1.9,4.05-1.41a.64.64,0,0,1,.35.58,1.23,1.23,0,0,1-.42,1.08A2.65,2.65,0,0,1,195.08,408.8Zm-1.66-.6c1.46.29,2.59.24,3.06-.16a.82.82,0,0,0,.28-.74.26.26,0,0,0-.13-.24C196.13,406.81,194.55,407.54,193.42,408.2Z" style="fill:#0A0A0A"></path><path d="M192.87,408.49a.2.2,0,0,1-.11,0,.2.2,0,0,1-.09-.19c0-.1.21-2.59,1.21-3.41a1.1,1.1,0,0,1,.87-.26h0a.66.66,0,0,1,.65.53c.19,1-1.54,2.85-2.43,3.34Zm1.74-3.49a.72.72,0,0,0-.47.17,5,5,0,0,0-1,2.71c.89-.68,2-2.1,1.88-2.67,0,0,0-.18-.3-.21h-.09Z" style="fill:#0A0A0A"></path><polygon points="183.59 408.18 191.48 408.18 191.56 389.9 183.67 389.9 183.59 408.18" style="fill:#ffc3bd"></polygon><polygon points="128.59 401.42 136.19 402.81 141.64 384.82 134.04 383.43 128.59 401.42" style="fill:#ffc3bd"></polygon><path d="M137.64,400.79l-8.63-2a.65.65,0,0,0-.76.37l-2.87,6.53a1.22,1.22,0,0,0,.86,1.65c3,.66,4.52.82,8.31,1.72,2.34.55,7.1,1.94,10.32,2.7s4.28-2.36,3-3c-5.66-2.71-7.54-5-9.1-7.2A2,2,0,0,0,137.64,400.79Z" style="fill:#263238"></path><path d="M191.39,407.26h-8.62a.66.66,0,0,0-.65.54l-1.29,7a1.2,1.2,0,0,0,1.19,1.4c3.11-.05,7.6-.23,11.51-.23,4.57,0,6.19.25,11.55.25,3.24,0,4-3.28,2.65-3.57-6.23-1.36-8.95-1.5-14.41-4.79A3.74,3.74,0,0,0,191.39,407.26Z" style="fill:#263238"></path><path d="M149.66,139.86c-7.7,7.34-10,23.83-10,23.83l13.92,6.82a118.85,118.85,0,0,0,6.87-17.75C163.23,143.08,155.23,134.54,149.66,139.86Z" style="fill:#263238"></path><path d="M156.58,150.75l-7.09,17.74,4.09,2s2.29-4.61,4.56-10.72Z" style="opacity:0.2"></path><path d="M198.37,174c-.06,8.81-.59,19.77-1.91,33.37H154.24c-.52-6.2,2.07-35.43-4.21-64.69a3.88,3.88,0,0,1,3.19-4.65,96.6,96.6,0,0,1,10-1.07,155.5,155.5,0,0,1,17.94,0,80.85,80.85,0,0,1,12.23,2.19s3.61,3.91,4.7,22.25C198.28,165.05,198.39,169.22,198.37,174Z" style="fill:#263238"></path><path d="M158.28,136.8l-1.84.21a.55.55,0,0,0-.48.63c.57,3.77,5.36,26.21,41,59a.55.55,0,0,0,.93-.36l.14-2.07a.54.54,0,0,0-.18-.45C162,161,159.11,140.91,158.9,137.31A.55.55,0,0,0,158.28,136.8Z" style="fill:#0A0A0A"></path><path d="M181.13,179.74l16.21,15.58-1.88,1.18a8,8,0,0,1-8.18.18L183,194.26a8,8,0,0,1-3.6-9.55Z" style="fill:#0A0A0A"></path><path d="M186.49,193.71c.14.32.79.26,1.46-.12s1.09-.94,1-1.25-.79-.26-1.46.12S186.35,193.4,186.49,193.71Z" style="fill:#263238"></path><path d="M198.37,174c-2.56-4.66-7.2-14-6.54-19.35l6.23,6.75C198.28,165.05,198.39,169.22,198.37,174Z" style="opacity:0.2"></path><path d="M185.08,146.32c-.67,7.49,16.38,25.61,16.38,25.61l13.67-11.13s-5.62-9.74-12.78-16.66C194.36,136.42,185.83,137.89,185.08,146.32Z" style="fill:#263238"></path><g style="opacity:0.2"><polygon points="191.56 389.9 191.52 400.06 183.62 400.06 183.66 389.9 191.56 389.9"></polygon><polygon points="134.04 383.43 141.64 384.83 138.83 394.1 131.23 392.7 134.04 383.43"></polygon></g><path d="M166.6,107.89c-1.15,7.77-2.22,12.25.78,17.14a10.18,10.18,0,0,0,18-1c3.09-6.47,4.46-18.09-2.32-23A10.29,10.29,0,0,0,166.6,107.89Z" style="fill:#ffc3bd"></path><path d="M180.61,115.08c-.06,2.21-5.73,9.44-10.56,10.33-5.23,1-6.58-.51-7.41-7.64-.95-8.2-3.7-8.2-4.89-13.43-1.51-6.59,4.95-12.59,12.59-9,6.62,3.15,12.74-3,17.3-4.9s5.27,3.43,2.22,7,1.77,1.36,3.17,2.86c2.5,2.69-1.6,8.71-11.83,11.1C183,113.33,180.61,115.08,180.61,115.08Z" style="fill:#263238"></path><path d="M178.21,112.69a9.29,9.29,0,0,0,1.86,5.47c1.59,2.07,3.44,1.06,3.88-1.23.4-2.06.06-5.62-1.95-6.87S178.21,110.32,178.21,112.69Z" style="fill:#ffc3bd"></path><path d="M181.48,207.4s-6.62,60.32-10.67,82.92c-4.43,24.75-27.37,102.43-27.37,102.43l-14.14-3s15.79-72.67,17.92-97.17c2.31-26.6,7-85.17,7-85.17Z" style="fill:#0A0A0A"></path><path d="M181.48,207.4s-6.62,60.32-10.67,82.92c-4.43,24.75-27.37,102.43-27.37,102.43l-14.14-3s15.79-72.67,17.92-97.17c2.31-26.6,7-85.17,7-85.17Z" style="fill:#fff;opacity:0.15"></path><path d="M146.61,388c.06,0-2.41,5.16-2.41,5.16l-15.91-3.39,1.14-4.82Z" style="fill:#263238"></path><path d="M176.65,228.9c-10.28,2-7.69,40.65-5.68,60.52,2.45-14,5.78-41.07,8-60.24A3.52,3.52,0,0,0,176.65,228.9Z" style="opacity:0.2"></path><path d="M196.46,207.4s3.37,59,3.44,83.09c.07,25-5.51,107-5.51,107H181s-3.6-80.51-5.14-105.1c-1.69-26.81-7.17-85-7.17-85Z" style="fill:#0A0A0A"></path><path d="M196.46,207.4s3.37,59,3.44,83.09c.07,25-5.51,107-5.51,107H181s-3.6-80.51-5.14-105.1c-1.69-26.81-7.17-85-7.17-85Z" style="fill:#fff;opacity:0.15"></path><path d="M196.76,392.18c.06,0-.54,5.55-.54,5.55H180l-.63-5Z" style="fill:#263238"></path></g></svg>